<svg id="logo" xmlns="http://www.w3.org/2000/svg" width="66" height="93.416" viewBox="0 0 66 93.416">
  <g id="Groupe_3" data-name="Groupe 3">
    <rect id="Rectangle_73" data-name="Rectangle 73" width="24.145" height="15.526" transform="translate(20.228 20.4)" fill="#2d9b56"/>
    <path id="Tracé_4" data-name="Tracé 4" d="M303.007,372.112h0a11.593,11.593,0,0,0-18.133-.355h0a11.6,11.6,0,1,0,6.406,18.727h0a11.672,11.672,0,0,0,1.663.243,11.6,11.6,0,1,0,10.066-18.614Z" transform="translate(-260.949 -367.562)" fill="#2d9b56"/>
    <g id="couteau" transform="translate(36.422 9.354)">
      <path id="couteau-2" data-name="couteau" d="M298.945,383.845V377.73s.091-.758-.248-.81-.784.418-.784.418a15.025,15.025,0,0,0-.889,2.012c-.1.5-.392,2.3-.444,2.8s-.209,3.214-.209,3.214v4.05a4.818,4.818,0,0,0,.157,1.255,4.049,4.049,0,0,1,.836,2.064c-.026,1.045-.261,9.642-.261,9.642s.026.914.679,1.071.993-1.019.993-1.019Z" transform="translate(-296.371 -376.916)" fill="#fff"/>
    </g>
    <g id="fourchette" transform="translate(25.037 10.156)">
      <g id="fourchette-2" data-name="fourchette" transform="translate(1.852)">
        <path id="Tracé_5" data-name="Tracé 5" d="M286.89,403.457s.024,0,.064,0a.884.884,0,0,0,.814-.988c0-1.006-.155-4.931-.155-4.931l-.284-8.8a1.672,1.672,0,0,1,.439-1.531,9.171,9.171,0,0,1,.766-.836s.3-.2.255-1.147-.114-3.925-.156-4.506-.241-2.962-.241-2.962h-.312l-.239,5.64a.178.178,0,0,1-.292-.007l-.135-5.647-.234-.021-.106,5.441s-.368.361-.184.361" transform="translate(-286.838 -377.718)" fill="#fff"/>
      </g>
      <path id="Tracé_6" data-name="Tracé 6" d="M286.89,403.457a.764.764,0,0,1-.137-.014.881.881,0,0,1-.742-.978c0-1.006.156-4.931.156-4.931l.284-8.8a1.674,1.674,0,0,0-.44-1.531,9.4,9.4,0,0,0-.765-.836s-.3-.2-.255-1.147.114-3.925.156-4.506.241-2.962.241-2.962h.312l.238,5.64a.179.179,0,0,0,.293-.007l.135-5.647.233-.021.107,5.441s.368.361.184.361" transform="translate(-284.987 -377.718)" fill="#fff"/>
    </g>
    <text id="Eat_it" data-name="Eat’it" transform="translate(1 81.416)" fill="#2d9b56" font-size="45.839" font-family="Blugie"><tspan x="0" y="0">Eat’it</tspan></text>
  </g>
</svg>
